<?xml version="1.0" encoding="UTF-8"?>
<svg xmlns="http://www.w3.org/2000/svg" version="1.1" viewBox="0 0 283.46 283.46">
  <!-- Generator: Adobe Illustrator 29.0.0, SVG Export Plug-In . SVG Version: 2.1.0 Build 186)  -->
  <defs>
    <style>
      .st0 {
        fill-rule: evenodd;
      }

      .st0, .st1 {
        fill: none;
        stroke: #c5d200;
        stroke-linecap: round;
        stroke-linejoin: round;
        stroke-width: 6.07px;
      }

      .st2 {
        display: none;
      }
    </style>
  </defs>
  <g id="Laag_1" class="st2">
    <g>
      <g>
        <g>
          <path class="st1" d="M199.66,171.58c-11.83.46-23.34-3.95-32.35-11.87-7.26-6.38-12.89-15.05-15.75-25.3-7.41-26.55,6.6-53.66,31.29-60.55,24.69-6.89,50.71,9.05,58.11,35.61,2.86,10.25,2.53,20.58-.38,29.8-3.61,11.44-11.18,21.17-21.54,26.9h0"/>
          <path class="st1" d="M212.4,147.13l6.64,19.05,16,45.9c.77,2.22-.49,4.63-2.75,5.27l-17.48,4.88c-2.27.63-4.59-.78-5.08-3.08l-10.07-47.55-4.18-19.73"/>
          <polyline class="st1" points="167.3 159.71 195.48 151.85 212.4 147.13 240.58 139.27"/>
        </g>
        <g>
          <path class="st1" d="M83.81,171.58c11.83.46,23.34-3.95,32.35-11.87,7.26-6.38,12.89-15.05,15.75-25.3,7.41-26.55-6.6-53.66-31.29-60.55-24.69-6.89-50.71,9.05-58.11,35.61-2.86,10.25-2.53,20.58.38,29.8,3.61,11.44,11.18,21.17,21.54,26.9h0"/>
          <path class="st1" d="M71.06,147.13l-6.64,19.05-16,45.9c-.77,2.22.49,4.63,2.75,5.27l17.48,4.88c2.27.63,4.59-.78,5.08-3.08l10.07-47.55,4.18-19.73"/>
          <polyline class="st1" points="116.16 159.71 87.98 151.85 71.06 147.13 42.89 139.27"/>
        </g>
      </g>
      <circle class="st1" cx="141.73" cy="62.03" r="19.26"/>
    </g>
  </g>
  <g id="Laag_2">
    <g>
      <path class="st0" d="M105.74,69v38.96s-55.29,145.24-55.29,145.24l28.06-17.15,9.57-34.15.08-32.14,21.35-61.23h10.83s-12.57,62.54-12.57,62.54l-17.25,32.16-9.04,33.42,15.04,25.17,21.59-23.21,4.17-35.39-6.62-32.15,9.03-62.55h14.98s-1.9,61.9-1.9,61.9l-12.11,32.25-3.82,36.15,19.89,26.86,19.87-26.87-3.84-36.15-12.12-32.24-1.94-61.9h15.05s9.03,62.55,9.03,62.55l-6.62,32.15,4.17,35.39,21.59,23.21,15.04-25.17-9.04-33.42-17.25-32.16-12.57-62.56h10.82s21.36,61.25,21.36,61.25l.08,32.14,9.57,34.15,28.06,17.15-55.29-145.21v-39.01c-.02-47.61-71.99-47.59-71.98.02Z"/>
      <rect class="st1" x="105.75" y="86.98" width="71.97" height="3.33"/>
    </g>
  </g>
</svg>