<?xml version="1.0" encoding="UTF-8"?>
<svg xmlns="http://www.w3.org/2000/svg" version="1.1" viewBox="0 0 283.46 283.46">
  <!-- Generator: Adobe Illustrator 29.0.0, SVG Export Plug-In . SVG Version: 2.1.0 Build 186)  -->
  <defs>
    <style>
      .st0 {
        fill-rule: evenodd;
      }

      .st0, .st1 {
        fill: none;
        stroke: #c5d200;
        stroke-linecap: round;
        stroke-linejoin: round;
        stroke-width: 6.07px;
      }

      .st2 {
        fill: #c5d200;
      }

      .st3 {
        display: none;
      }
    </style>
  </defs>
  <g id="Laag_1" class="st3">
    <g>
      <g>
        <g>
          <path class="st1" d="M199.66,171.58c-11.83.46-23.34-3.95-32.35-11.87-7.26-6.38-12.89-15.05-15.75-25.3-7.41-26.55,6.6-53.66,31.29-60.55,24.69-6.89,50.71,9.05,58.11,35.61,2.86,10.25,2.53,20.58-.38,29.8-3.61,11.44-11.18,21.17-21.54,26.9h0"/>
          <path class="st1" d="M212.4,147.13l6.64,19.05,16,45.9c.77,2.22-.49,4.63-2.75,5.27l-17.48,4.88c-2.27.63-4.59-.78-5.08-3.08l-10.07-47.55-4.18-19.73"/>
          <polyline class="st1" points="167.3 159.71 195.48 151.85 212.4 147.13 240.58 139.27"/>
        </g>
        <g>
          <path class="st1" d="M83.81,171.58c11.83.46,23.34-3.95,32.35-11.87,7.26-6.38,12.89-15.05,15.75-25.3,7.41-26.55-6.6-53.66-31.29-60.55-24.69-6.89-50.71,9.05-58.11,35.61-2.86,10.25-2.53,20.58.38,29.8,3.61,11.44,11.18,21.17,21.54,26.9h0"/>
          <path class="st1" d="M71.06,147.13l-6.64,19.05-16,45.9c-.77,2.22.49,4.63,2.75,5.27l17.48,4.88c2.27.63,4.59-.78,5.08-3.08l10.07-47.55,4.18-19.73"/>
          <polyline class="st1" points="116.16 159.71 87.98 151.85 71.06 147.13 42.89 139.27"/>
        </g>
      </g>
      <circle class="st1" cx="141.73" cy="62.03" r="19.26"/>
    </g>
  </g>
  <g id="Laag_3">
    <g id="Layer0_7_FILL">
      <path class="st2" d="M190.45,200.11v.05c-.95,1.15-1.02,2.2-.21,3.15l8.51,8.48h0s1.2,1.19,1.2,1.19h0s13.4,13.35,13.4,13.35h0s15.55,15.5,15.55,15.5h0s9.94,9.89,9.94,9.89c-.96,1.62-.94,3,.05,4.16l3.67,3.7h0s5.29,5.36,5.29,5.36c1.01.67,1.94.51,2.77-.45l15.79-15.78c.99-1,1.2-1.91.65-2.72l-7.2-7.07c-.24-.21-.48-.42-.72-.63-.98-.81-1.79-1.3-2.43-1.48-1.29-.29-2.17-.21-2.63.25l-8.23-8.06h0s-29.81-30.17-29.81-30.17h0s-9.05-9.17-9.05-9.17c-1.72-1.67-3.29-2.01-4.71-1.01h0c-14.94-17.97-22.68-39.36-23.23-64.16-.54-21.86-6.12-40.25-16.76-55.15-21-26.11-45.78-39.03-74.34-38.76-24.46,2.04-41.28,13.1-50.45,33.17-3.45,7.66-5.07,16.4-4.86,26.24.43,19.54,7.95,37.63,22.57,54.29,14.62,16.66,32.06,27.01,52.32,31.03,4.46.89,8.77,1.42,12.91,1.58,37.43,3.09,60.77,10.83,70,23.23M144.51,62.91h0l-6.29,6.18-10.54-10.64,5.28-5.16c3.97,2.77,7.82,5.98,11.55,9.62M151.59,87.3l-3.26-3.29-10.01,10.03-9.9-9.88,10.21-9.93-2.77-2.79-10.16,10-10.63-10.61,10.25-10.04,36.76,37.08-.33-.32-9.96,9.93-10.2-10.18,10.01-9.99M150.68,81.65l-9.67-9.75,6.3-6.12c3.24,3.42,6.11,6.96,8.61,10.61l-5.25,5.26M158.51,80.39h0c2.69,4.46,4.85,9.09,6.5,13.89,0,0,0,0,0,0l-.91.92-10.16-10.25,4.56-4.56M167.52,103.36s0,.01,0,.02c.42,2.04.75,4.09.99,6.17.31,2.57.48,5.14.49,7.71h0s-3.73,3.69-3.73,3.69l-10.86-10.84,9.93-9.95,3.18,3.2M168.64,124.31l-.55-.55.67-.66-.12,1.21M151.7,112.83l-.08-.08,16.23,16.38s0,.01,0,.02c-1.1,5.18-2.99,9.96-5.68,14.36l-7-7.13.04.04,10.06-9.88-2.8-2.83-10.03,9.89-23.38-23.81,9.87-9.86-3.24-3.26h0l-9.83,9.86.06.06-10.05-10.23h0s9.94-9.67,9.94-9.67l-2.69-2.73-9.88,9.72-22.76-23.18,9.75-9.66-2.63-2.65-9.73,9.66-9.99-10.17,9.81-9.49-.08-.08,22.34,22.56-9.83,9.66,2.57,2.62,9.85-9.66,36.52,36.88-9.92,9.89,2.64,2.7,9.91-9.92M139.44,125.1l-.05-.05,21.02,21.13s.06-.08.09-.12c-.03.05-.06.09-.09.13-1.53,2.15-3.22,4.16-5.07,6.04-1.47,1.49-3.01,2.88-4.64,4.17-.86.68-1.73,1.32-2.61,1.93-4.36,2.99-9.14,5.15-14.34,6.51-1.05.27-2.14.51-3.26.73-1.9.36-3.82.62-5.75.77-1.84.15-3.72.21-5.65.18-2.02-.02-4.08-.15-6.18-.37-1.33-.13-2.66-.3-3.99-.5-1.83-.29-3.65-.64-5.45-1.07-.91-.21-1.81-.44-2.7-.69-1.44-.39-2.87-.84-4.3-1.33-4.76-1.64-9.36-3.79-13.81-6.45-1.28-.77-2.56-1.58-3.83-2.44-4.1-2.77-8.07-6-11.9-9.69-.33-.32-.62-.59-.85-.82-.54-.52-1.05-1.03-1.53-1.53-3.69-3.79-6.93-7.72-9.71-11.78-.69-1.01-1.35-2.03-1.98-3.04-2.54-4.09-4.64-8.32-6.32-12.7-.49-1.28-.94-2.56-1.34-3.83-.58-1.81-1.08-3.63-1.51-5.47-.42-1.8-.77-3.62-1.05-5.45-.13-.87-.25-1.75-.35-2.63-.17-1.44-.3-2.86-.38-4.27-.09-1.54-.13-3.04-.12-4.5.04-3.44.36-6.72.97-9.85.31-1.58.69-3.13,1.14-4.64.72-2.43,1.64-4.79,2.76-7.07,1.12-2.28,2.42-4.45,3.9-6.51.58-.82,1.2-1.62,1.84-2.4.96-1.17,1.99-2.31,3.08-3.43h0c2.28-2.32,4.71-4.37,7.29-6.13,1.14-.78,2.3-1.49,3.47-2.14,4.33-2.42,9.03-4.12,14.1-5.08,0,0,0,0,0,0l4.57,4.61-9.7,9.59-8.96-9.13c-1.17.65-2.33,1.36-3.47,2.14l9.67,9.73-10.02,9.91.04.04-10.07-10.12c-.65.79-1.26,1.58-1.84,2.4l9.72,9.81-10.19,10.06-6.18-6.28c-.45,1.5-.83,3.05-1.14,4.63l4.52,4.5-.04-.04-5.45,5.39c-.01,1.46.03,2.96.12,4.5l7.74-7.48h0s0,0,0,0l10.48,10.45-10.74,10.67,2.6,2.6,10.76-10.66,9.77,9.74-.15-.14-10.83,10.62-18.91-18.91c.28,1.82.63,3.64,1.06,5.45l3.49,3.49.12.13-.12-.12h0s-1.99,1.97-1.99,1.97c.41,1.27.85,2.55,1.34,3.83l3.25-3.21,22.81,22.81-8.04,7.93c.48.5.99,1.01,1.53,1.53.34.33.62.61.85.83l8.09-7.85-.05-.05,10.83,10.83-.11-.1-6.86,6.86c1.26.85,2.54,1.66,3.84,2.44l6.18-6.15,10.12,10.12-2.49,2.48c1.41.49,2.84.94,4.3,1.33l1-1,1.69,1.69c1.8.43,3.61.78,5.45,1.07l-4.95-4.95,10.79-10.82-2.77-2.76-10.82,10.77.05.05-37.14-37.14,10.85-10.63,55.58,55.4c1.1-.21,2.19-.45,3.26-.72l-3.68-3.74,10.52-10.33-2.75-2.77-10.47,10.34-10.55-10.73.09.08,10.36-10.38-2.71-2.73-10.39,10.34-10.06-10.23,10.34-10.31-3.19-3.22-10.3,10.33-10.36-10.53,10.41-10.13-2.56-2.59-10.35,10.19-10.61-10.78,10.33-10.12-2.56-2.58-10.3,10.12.15.16-9.69-9.84,10.22-10.13-2.61-2.64-10.21,10.13-10.34-10.51,10.31-9.96,85.29,86.07c.89-.61,1.76-1.25,2.61-1.93l-7.83-7.88,10.05-9.85-2.77-2.79-10.04,9.88-10.61-10.67,9.94-9.97M169.11,148.06c.21-.42.48-.61.81-.59.39,0,.66.26.8.76,2.25,9.72,6.02,19.53,11.31,29.44.68,1.31.83,2.12.43,2.43-.51.4-1.58.16-3.23-.73-8.1-4.31-16.68-7.64-25.76-9.99-.59-.15-1.17-.3-1.73-.43-1.14-.3-1.77-.69-1.89-1.16-.18-.62.18-1.15,1.08-1.58.87-.47,1.72-.95,2.54-1.45,6.97-4.26,12.18-9.83,15.64-16.71M75.2,80.45l-10.23-10.29,10.14-9.79,10.08,10.14-9.99,9.94M112.69,43.19l-.08.08-.16-.16.23.08M115.26,45.93l1.37-1.36c4.53,1.73,8.91,3.94,13.14,6.61h0l-4.71,4.63-9.8-9.89M90.5,39.75s0,0,0,0l-3.31,3.26,2.88,2.87,6.12-5.91c.56.04,1.11.09,1.67.15,2.77.28,5.51.71,8.21,1.3,0,0,.01,0,.02,0l4.15,4.18-10.25,10.19.06.06-15.78-15.74c2.07-.23,4.14-.35,6.2-.36M97.66,83.05l-.15-.15-10.05,9.86,2.58,2.6,10.06-9.87,10.62,10.68-10.04,9.88-22.85-22.99,10.01-9.92,9.84,9.91M122.69,58.15l-10.24,10.07-9.8-9.78,10.25-10.16,9.79,9.87M113.47,118.93l3.2,3.22,9.96-9.95,10.14,10.21-9.98,9.94-23.63-23.77.08.07,10.1-9.82,10.08,10.14-9.94,9.97M128.01,163.1l-2.73-2.72-6.21,6.12c1.93.02,3.81-.04,5.65-.18l3.29-3.22M61.84,122.96l-2.53-2.53-6.47,6.37c.63,1.01,1.29,2.02,1.98,3.04l7.02-6.87M101.8,136.98l-3.18-3.18-10.75,10.78,3.15,3.16,10.78-10.76M88.14,123.35l-2.51-2.51-10.82,10.66,2.43,2.44,10.91-10.6Z"/>
    </g>
  </g>
  <g id="Laag_2" class="st3">
    <g>
      <path class="st0" d="M105.74,69v38.96s-55.29,145.24-55.29,145.24l28.06-17.15,9.57-34.15.08-32.14,21.35-61.23h10.83s-12.57,62.54-12.57,62.54l-17.25,32.16-9.04,33.42,15.04,25.17,21.59-23.21,4.17-35.39-6.62-32.15,9.03-62.55h14.98s-1.9,61.9-1.9,61.9l-12.11,32.25-3.82,36.15,19.89,26.86,19.87-26.87-3.84-36.15-12.12-32.24-1.94-61.9h15.05s9.03,62.55,9.03,62.55l-6.62,32.15,4.17,35.39,21.59,23.21,15.04-25.17-9.04-33.42-17.25-32.16-12.57-62.56h10.82s21.36,61.25,21.36,61.25l.08,32.14,9.57,34.15,28.06,17.15-55.29-145.21v-39.01c-.02-47.61-71.99-47.59-71.98.02Z"/>
      <rect class="st1" x="105.75" y="86.98" width="71.97" height="3.33"/>
    </g>
  </g>
</svg>