<?xml version="1.0" encoding="UTF-8"?>
<svg xmlns="http://www.w3.org/2000/svg" version="1.1" viewBox="0 0 283.46 283.46">
  <!-- Generator: Adobe Illustrator 29.0.0, SVG Export Plug-In . SVG Version: 2.1.0 Build 186)  -->
  <defs>
    <style>
      .st0 {
        stroke: #101010;
        stroke-miterlimit: 10;
      }

      .st0, .st1 {
        fill: #c5d200;
      }

      .st2 {
        fill-rule: evenodd;
      }

      .st2, .st3 {
        fill: none;
        stroke: #c5d200;
        stroke-linecap: round;
        stroke-linejoin: round;
        stroke-width: 6.07px;
      }

      .st4 {
        display: none;
      }
    </style>
  </defs>
  <g id="Ping" class="st4">
    <g>
      <g>
        <g>
          <path class="st3" d="M199.66,171.58c-11.83.46-23.34-3.95-32.35-11.87-7.26-6.38-12.89-15.05-15.75-25.3-7.41-26.55,6.6-53.66,31.29-60.55,24.69-6.89,50.71,9.05,58.11,35.61,2.86,10.25,2.53,20.58-.38,29.8-3.61,11.44-11.18,21.17-21.54,26.9h0"/>
          <path class="st3" d="M212.4,147.13l6.64,19.05,16,45.9c.77,2.22-.49,4.63-2.75,5.27l-17.48,4.88c-2.27.63-4.59-.78-5.08-3.08l-10.07-47.55-4.18-19.73"/>
          <polyline class="st3" points="167.3 159.71 195.48 151.85 212.4 147.13 240.58 139.27"/>
        </g>
        <g>
          <path class="st3" d="M83.81,171.58c11.83.46,23.34-3.95,32.35-11.87,7.26-6.38,12.89-15.05,15.75-25.3,7.41-26.55-6.6-53.66-31.29-60.55-24.69-6.89-50.71,9.05-58.11,35.61-2.86,10.25-2.53,20.58.38,29.8,3.61,11.44,11.18,21.17,21.54,26.9h0"/>
          <path class="st3" d="M71.06,147.13l-6.64,19.05-16,45.9c-.77,2.22.49,4.63,2.75,5.27l17.48,4.88c2.27.63,4.59-.78,5.08-3.08l10.07-47.55,4.18-19.73"/>
          <polyline class="st3" points="116.16 159.71 87.98 151.85 71.06 147.13 42.89 139.27"/>
        </g>
      </g>
      <circle class="st3" cx="141.73" cy="62.03" r="19.26"/>
    </g>
  </g>
  <g id="Home" class="st4">
    <path class="st0" d="M71.16,137.47c.05,2.3.06,5.8.03,10.49-.18,24.67-.21,42.28-.08,52.82.04,3.8.74,11.28,4.74,13.25,3.13,1.54,6.41,1.95,10.41,1.91,8.85-.1,17.61-.07,26.27.08.36.01.71-.07,1.04-.21,4.02-1.77,6.2-5.32,6.55-10.63.29-4.56.27-7.5-.07-8.83-.08-.32-.09-.66-.03-.98.44-2.53-.06-5.47,0-7.95.23-8.23.33-13.57.29-16-.09-5.95.42-9.98,1.55-12.11,2.23-4.23,6.12-6.41,11.67-6.55,9.19-.23,15.07-.2,17.63.09,4.87.57,8.32,2.74,10.34,6.5,1.08,2.01,1.54,6.16,1.37,12.43-.13,4.69-.19,15.28-.18,31.76.01,3.01.44,5.38,1.3,7.12,1.86,3.75,5.05,5.41,9.08,5.34,11.6-.17,20.4-.16,26.39.03,3.23.11,5.58-.2,7.04-.95,6.24-3.19,6.57-8.04,6.54-15.55-.02-4.42-.05-19.02-.1-43.8,0-6.67.53-12.3.06-17.91-.13-1.46.98-2.74,2.45-2.83,2.11-.13,5.15-.14,9.1-.04,1.83.05,4.08-.55,6.74-1.78.32-.15.61-.37.85-.64,4-4.61,3.62-8.88-1.13-12.81-7.79-6.44-14.38-12.25-19.77-17.43-3.74-3.6-8.02-6.62-11.62-10.62-.18-.21-.39-.38-.63-.51-.61-.35-2.2-1.77-4.79-4.27-3.94-3.81-12.74-11.84-26.39-24.1-1.38-1.24-2.87-3.04-4.1-4.14-4.37-3.9-8.66-7.79-12.85-11.66-1.81-1.67-3.8-2.99-5.98-3.98-.31-.14-.65-.21-.99-.22-4.95-.05-9.15,1.43-12.58,4.45-4.29,3.79-7.29,6.22-10.44,9.2-7.92,7.49-15.53,14.38-22.84,20.68-3.23,2.79-5.55,4.87-6.94,6.24-3.57,3.51-5.85,5.63-6.82,6.36-2.78,2.07-4.85,5.01-7.7,7.19-5.17,3.95-10.1,9.15-14.9,13.17-2.36,1.98-5.7,5.14-10.01,9.48-2.35,2.35-3.69,5.42-2.51,8.31,3.54,8.62,12.09,7.23,20.14,7.67,1.03.06,1.85.9,1.87,1.93"/>
    <path class="st1" d="M69.54,137.4c0-.4-.33-.73-.73-.73l-11.08.08c-.08,0-.16,0-.24-.02-4.23-.98-7.26-3.19-9.07-6.62-3.31-6.24-.23-9.75,4.74-14.16,8.03-7.13,17.71-15.91,29.03-26.35,1.44-1.33,13.18-12.02,35.21-32.05,5.51-5.01,10.37-9.23,14.58-12.66,1.57-1.28,3.37-2.26,5.38-2.95,5.53-1.9,9.46-.64,13.95,3.51,12.29,11.37,24.43,22.56,36.43,33.58,5.8,5.33,11.22,10.23,16.27,14.71,3.01,2.68,7.97,7.16,14.86,13.44,3.25,2.96,5.73,5.14,7.44,6.55,5.67,4.68,13.1,9.6,8.87,17.16-2,3.57-5.32,5.47-9.96,5.7-3.54.18-6.98.2-10.31.05-.21-.01-.38.16-.38.37.07,15.07.12,36.02.17,62.85.01,5.73-.42,9.41-1.31,11.04-1.24,2.27-3.01,4.09-5.32,5.44-1.58.93-3.89,1.39-6.92,1.39-7.17.01-17.01-.02-29.53-.09-.33,0-.66-.04-.97-.13-4.77-1.34-7.85-4.32-9.26-8.93-.11-.39-.18-.78-.2-1.18-.03-.54,0-13.22.04-38.05.01-5.08-.51-8.45-1.55-10.1-2.76-4.38-6.85-5.05-12.21-4.95-3.49.07-6.71.05-9.68-.04-5.1-.16-8.52.28-10.26,1.33-4.53,2.74-5.55,6.65-5.44,12.12.02,1.02.05,12.04.09,33.07,0,5.09-.43,8.48-1.3,10.15-1.57,2.99-4.02,5.19-7.34,6.59-.26.11-.54.17-.82.17h-31.83c-.11,0-.22-.01-.32-.04-4.43-1.01-7.63-3.47-9.62-7.37-.99-1.95-1.48-4.92-1.47-8.93.05-28.89.07-50.2.06-63.95M71.16,137.47c.05,2.3.06,5.8.03,10.49-.18,24.67-.21,42.28-.08,52.82.04,3.8.74,11.28,4.74,13.25,3.13,1.54,6.41,1.95,10.41,1.91,8.85-.1,17.61-.07,26.27.08.36.01.71-.07,1.04-.21,4.02-1.77,6.2-5.32,6.55-10.63.29-4.56.27-7.5-.07-8.83-.08-.32-.09-.66-.03-.98.44-2.53-.06-5.47,0-7.95.23-8.23.33-13.57.29-16-.09-5.95.42-9.98,1.55-12.11,2.23-4.23,6.12-6.41,11.67-6.55,9.19-.23,15.07-.2,17.63.09,4.87.57,8.32,2.74,10.34,6.5,1.08,2.01,1.54,6.16,1.37,12.43-.13,4.69-.19,15.28-.18,31.76.01,3.01.44,5.38,1.3,7.12,1.86,3.75,5.05,5.41,9.08,5.34,11.6-.17,20.4-.16,26.39.03,3.23.11,5.58-.2,7.04-.95,6.24-3.19,6.57-8.04,6.54-15.55-.02-4.42-.05-19.02-.1-43.8,0-6.67.53-12.3.06-17.91-.13-1.46.98-2.74,2.45-2.83,2.11-.13,5.15-.14,9.1-.04,1.83.05,4.08-.55,6.74-1.78.32-.15.61-.37.85-.64,4-4.61,3.62-8.88-1.13-12.81-7.79-6.44-14.38-12.25-19.77-17.43-3.74-3.6-8.02-6.62-11.62-10.62-.18-.21-.39-.38-.63-.51-.61-.35-2.2-1.77-4.79-4.27-3.94-3.81-12.74-11.84-26.39-24.1-1.38-1.24-2.87-3.04-4.1-4.14-4.37-3.9-8.66-7.79-12.85-11.66-1.81-1.67-3.8-2.99-5.98-3.98-.31-.14-.65-.21-.99-.22-4.95-.05-9.15,1.43-12.58,4.45-4.29,3.79-7.29,6.22-10.44,9.2-7.92,7.49-15.53,14.38-22.84,20.68-3.23,2.79-5.55,4.87-6.94,6.24-3.57,3.51-5.85,5.63-6.82,6.36-2.78,2.07-4.85,5.01-7.7,7.19-5.17,3.95-10.1,9.15-14.9,13.17-2.36,1.98-5.7,5.14-10.01,9.48-2.35,2.35-3.69,5.42-2.51,8.31,3.54,8.62,12.09,7.23,20.14,7.67,1.03.06,1.85.9,1.87,1.93h0Z"/>
    <path class="st1" d="M71.16,137.47c-.02-1.03-.84-1.87-1.87-1.93-8.05-.44-16.6.95-20.14-7.67-1.18-2.89.16-5.96,2.51-8.31,4.31-4.34,7.65-7.5,10.01-9.48,4.8-4.02,9.73-9.22,14.9-13.17,2.85-2.18,4.92-5.12,7.7-7.19.97-.73,3.25-2.85,6.82-6.36,1.39-1.37,3.71-3.45,6.94-6.24,7.31-6.3,14.92-13.19,22.84-20.68,3.15-2.98,6.15-5.41,10.44-9.2,3.43-3.02,7.63-4.5,12.58-4.45.34.01.68.08.99.22,2.18.99,4.17,2.31,5.98,3.98,4.19,3.87,8.48,7.76,12.85,11.66,1.23,1.1,2.72,2.9,4.1,4.14,13.65,12.26,22.45,20.29,26.39,24.1,2.59,2.5,4.18,3.92,4.79,4.27.24.13.45.3.63.51,3.6,4,7.88,7.02,11.62,10.62,5.39,5.18,11.98,10.99,19.77,17.43,4.75,3.93,5.13,8.2,1.13,12.81-.24.27-.53.49-.85.64-2.66,1.23-4.91,1.83-6.74,1.78-3.95-.1-6.99-.09-9.1.04-1.47.09-2.58,1.37-2.45,2.83.47,5.61-.07,11.24-.06,17.91.05,24.78.08,39.38.1,43.8.03,7.51-.3,12.36-6.54,15.55-1.46.75-3.81,1.06-7.04.95-5.99-.19-14.79-.2-26.39-.03-4.03.07-7.22-1.59-9.08-5.34-.86-1.74-1.29-4.11-1.3-7.12,0-16.48.05-27.07.18-31.76.17-6.27-.29-10.42-1.37-12.43-2.02-3.76-5.47-5.93-10.34-6.5-2.56-.29-8.44-.32-17.63-.09-5.55.14-9.44,2.32-11.67,6.55-1.13,2.13-1.64,6.16-1.55,12.11.04,2.43-.06,7.77-.29,16-.06,2.48.44,5.42,0,7.95-.06.32-.05.66.03.98.34,1.33.36,4.27.07,8.83-.35,5.31-2.53,8.86-6.55,10.63-.33.14-.68.22-1.04.21-8.66-.15-17.42-.18-26.27-.08-4,.04-7.28-.37-10.41-1.91-4-1.97-4.7-9.45-4.74-13.25-.13-10.54-.1-28.15.08-52.82.03-4.69.02-8.19-.03-10.49h0Z"/>
  </g>
  <g id="Laag_7" class="st4">
    <path class="st1" d="M201.94,80.88c.52-.55,1.1-1.37,1.75-2.46,2.51-4.26,7.8-5.46,11.83-3.52,3.06,1.47,4.59,4.36,4.59,8.67v25.48c.02,11.63-6.74,12.17-16.26,11.84-7.44-.26-12.6-.08-20.54.07-5.13.1-8.44-.31-9.93-1.24-2.75-1.72-3.93-4.73-3.55-9.02.04-.44.21-.86.49-1.21,2.14-2.68,3.52-4.17,4.14-4.48,4.27-2.1,7.83-4.1,10.69-5.99.74-.5.84-1.55.2-2.18-10.14-9.95-22.29-15.89-36.45-17.83-1.87-.25-5.96-.19-12.29.18-11.34.68-22.62,6.2-31.07,13.02-6.03,4.87-10.97,11.06-14.84,18.57-3.77,7.31-6.09,14.9-6.95,22.76-.4,3.68-.29,8.27.33,13.77,1.29,11.39,7.13,22.09,14.74,30.55,5.35,5.96,13.04,12.07,20.87,15.12,6.66,2.59,12.65,3.97,17.96,4.12,17.97.51,33.23-5.89,45.79-19.18,2.16-2.28,4.44-5.48,6.84-9.6,2.02-3.47,3.96-6.9,5.83-10.27,2.95-5.31,11.42-4.14,15.36-1.4,3.17,2.21,3.36,4.83,2.55,8.89-.28,1.39-.75,2.74-1.42,4.03-1.88,3.63-3.79,6.88-5.72,9.75-.27.39-1.86,2.61-4.79,6.66-8.42,11.66-20.7,20.51-34.22,25.78-.61.24-3.21.93-7.81,2.07-7.12,1.76-14.11,2.02-21.89,1.83-5.01-.12-8.39-1.03-13.34-1.58-1.42-.16-3.18-.52-5.27-1.08-9.38-2.51-17.68-6.69-24.9-12.54-5.39-4.38-12.56-11.27-16.7-17.47-3.84-5.77-6.64-10.72-8.41-14.85-1.35-3.15-2.84-7.96-4.48-14.43-3.53-13.88-1.24-31.31,3.61-43.7,5.51-14.07,13.93-25.79,25.27-35.16,3.48-2.87,8.12-5.82,13.92-8.83,7.41-3.85,13.81-5.18,22.31-6.63,2.66-.45,6.14-.58,10.45-.39.52.03,4.02.14,10.5.33,4.03.13,9.45,1.04,16.24,2.75,6.23,1.56,11.95,4.16,17.16,7.81,3.86,2.69,7.81,5.43,11.85,8.2.26.17.48.39.67.64.81,1.07,1.66,1.88,2.55,2.44.75.47,1.73.35,2.34-.29h0Z"/>
  </g>
  <g id="Laag_8">
    <path class="st0" d="M215.72,130.36c-2.62-1.71-5.7-2.59-9.25-2.64-28.1-.4-45.25-.51-67.63-.1-11.37.21-18.75.29-22.16.26-.85-.01-1.65-.44-2.4-1.3-.22-.25-.24-.62-.04-.89,1.99-2.73,3.09-4.21,3.3-4.44,2.81-3.04,9.94-10.51,21.39-22.4,4.59-4.77,9.12-10.76,8.09-17.54-.46-2.98-1.52-5.28-3.18-6.89-1.9-1.85-4.2-2.93-6.9-3.24-4.05-.48-9.93.14-13,3.22-32.83,32.98-51.55,51.73-56.18,56.24-4.2,4.1-5.91,7.34-4.63,12.9.49,2.11,2.45,4.9,5.88,8.37,5.72,5.76,12.57,12.64,20.55,20.65,6.14,6.16,11.99,12.09,17.56,17.79,9.67,9.91,15.59,15.76,17.78,17.56,4.37,3.59,11.22,4.52,16.14,1.42,4.02-2.53,7.28-8.74,5.76-13.75-.54-1.78-1.38-3.29-2.52-4.54-4.24-4.67-9.52-8.93-13.29-12.64-2.83-2.8-9.23-9.52-19.19-20.15-.15-.15-.24-.36-.25-.57l-.13-1.53c-.04-.51.36-.94.87-.94h95.68c.32,0,.65-.05.95-.16,7.17-2.42,11.62-8.53,10.53-16.2-.35-2.53-1.38-5.14-3.08-7.84-.16-.26-.39-.49-.65-.65"/>
    <path class="st1" d="M112.78,157.12c-.21,0-.31.25-.16.4,10.85,10.94,20.28,20.32,28.27,28.15,4.66,4.56,7.86,7.36,7.98,12.43.16,6.79-3.95,12.34-10.6,14.16-9.36,2.56-13.54-2.14-20.57-9.09-10.2-10.11-17.88-18.44-27.78-28.3-1.49-1.49-8.48-8.45-20.97-20.89-4.01-4-6.44-7.2-7.27-9.61-1.67-4.83-.29-9.44,4.14-13.85,10.24-10.21,29.27-29.26,57.09-57.17,3.85-3.86,10.27-4.75,15.32-3.56,3.76.89,6.63,2.92,8.61,6.1,1.78,2.87,2.44,6.4,1.99,10.6-.04.38-.14.74-.31,1.08-.33.68-.53,1.42-.62,2.23-.04.38-.18.74-.4,1.05-3.03,4.19-5.18,6.92-6.44,8.18-8.33,8.37-16.56,17.13-24.69,26.29-.27.3-.06.78.35.78,28.51.09,56.96.11,85.34.06,6.21-.01,11.54-.9,15.82,4.85,3.65,4.9,4.64,12.44,1.57,17.71-1.9,3.26-4.5,5.67-7.81,7.22-1.74.82-4.6,1.22-8.59,1.2-34.79-.17-64.88-.17-90.27-.02M215.72,130.36c-2.62-1.71-5.7-2.59-9.25-2.64-28.1-.4-45.25-.51-67.63-.1-11.37.21-18.75.29-22.16.26-.85-.01-1.65-.44-2.4-1.3-.22-.25-.24-.62-.04-.89,1.99-2.73,3.09-4.21,3.3-4.44,2.81-3.04,9.94-10.51,21.39-22.4,4.59-4.77,9.12-10.76,8.09-17.54-.46-2.98-1.52-5.28-3.18-6.89-1.9-1.85-4.2-2.93-6.9-3.24-4.05-.48-9.93.14-13,3.22-32.83,32.98-51.55,51.73-56.18,56.24-4.2,4.1-5.91,7.34-4.63,12.9.49,2.11,2.45,4.9,5.88,8.37,5.72,5.76,12.57,12.64,20.55,20.65,6.14,6.16,11.99,12.09,17.56,17.79,9.67,9.91,15.59,15.76,17.78,17.56,4.37,3.59,11.22,4.52,16.14,1.42,4.02-2.53,7.28-8.74,5.76-13.75-.54-1.78-1.38-3.29-2.52-4.54-4.24-4.67-9.52-8.93-13.29-12.64-2.83-2.8-9.23-9.52-19.19-20.15-.15-.15-.24-.36-.25-.57l-.13-1.53c-.04-.51.36-.94.87-.94h95.68c.32,0,.65-.05.95-.16,7.17-2.42,11.62-8.53,10.53-16.2-.35-2.53-1.38-5.14-3.08-7.84-.16-.26-.39-.49-.65-.65h0Z"/>
    <path class="st1" d="M216.37,131.01c1.7,2.7,2.73,5.31,3.08,7.84,1.09,7.67-3.36,13.78-10.53,16.2-.3.11-.63.16-.95.16h-95.68c-.51,0-.91.43-.87.94l.13,1.53c0,.21.1.42.25.57,9.96,10.63,16.36,17.35,19.19,20.15,3.77,3.71,9.05,7.97,13.29,12.64,1.14,1.25,1.98,2.76,2.52,4.54,1.52,5.01-1.74,11.22-5.76,13.75-4.92,3.1-11.77,2.17-16.14-1.42-2.19-1.8-8.11-7.65-17.78-17.56-5.57-5.7-11.42-11.63-17.56-17.79-7.98-8.01-14.83-14.89-20.55-20.65-3.43-3.47-5.39-6.26-5.88-8.37-1.28-5.56.43-8.8,4.63-12.9,4.63-4.51,23.35-23.26,56.18-56.24,3.07-3.08,8.95-3.7,13-3.22,2.7.31,5,1.39,6.9,3.24,1.66,1.61,2.72,3.91,3.18,6.89,1.03,6.78-3.5,12.77-8.09,17.54-11.45,11.89-18.58,19.36-21.39,22.4-.21.23-1.31,1.71-3.3,4.44-.2.27-.18.64.04.89.75.86,1.55,1.29,2.4,1.3,3.41.03,10.79-.05,22.16-.26,22.38-.41,39.53-.3,67.63.1,3.55.05,6.63.93,9.25,2.64.26.16.49.39.65.65h0Z"/>
  </g>
  <g id="Tennis" class="st4">
    <g id="Layer0_7_FILL">
      <path class="st1" d="M190.45,200.11v.05c-.95,1.15-1.02,2.2-.21,3.15l8.51,8.48h0s1.2,1.19,1.2,1.19h0s13.4,13.35,13.4,13.35h0s15.55,15.5,15.55,15.5h0s9.94,9.89,9.94,9.89c-.96,1.62-.94,3,.05,4.16l3.67,3.7h0s5.29,5.36,5.29,5.36c1.01.67,1.94.51,2.77-.45l15.79-15.78c.99-1,1.2-1.91.65-2.72l-7.2-7.07c-.24-.21-.48-.42-.72-.63-.98-.81-1.79-1.3-2.43-1.48-1.29-.29-2.17-.21-2.63.25l-8.23-8.06h0s-29.81-30.17-29.81-30.17h0s-9.05-9.17-9.05-9.17c-1.72-1.67-3.29-2.01-4.71-1.01h0c-14.94-17.97-22.68-39.36-23.23-64.16-.54-21.86-6.12-40.25-16.76-55.15-21-26.11-45.78-39.03-74.34-38.76-24.46,2.04-41.28,13.1-50.45,33.17-3.45,7.66-5.07,16.4-4.86,26.24.43,19.54,7.95,37.63,22.57,54.29,14.62,16.66,32.06,27.01,52.32,31.03,4.46.89,8.77,1.42,12.91,1.58,37.43,3.09,60.77,10.83,70,23.23M144.51,62.91h0l-6.29,6.18-10.54-10.64,5.28-5.16c3.97,2.77,7.82,5.98,11.55,9.62M151.59,87.3l-3.26-3.29-10.01,10.03-9.9-9.88,10.21-9.93-2.77-2.79-10.16,10-10.63-10.61,10.25-10.04,36.76,37.08-.33-.32-9.96,9.93-10.2-10.18,10.01-9.99M150.68,81.65l-9.67-9.75,6.3-6.12c3.24,3.42,6.11,6.96,8.61,10.61l-5.25,5.26M158.51,80.39h0c2.69,4.46,4.85,9.09,6.5,13.89,0,0,0,0,0,0l-.91.92-10.16-10.25,4.56-4.56M167.52,103.36s0,.01,0,.02c.42,2.04.75,4.09.99,6.17.31,2.57.48,5.14.49,7.71h0s-3.73,3.69-3.73,3.69l-10.86-10.84,9.93-9.95,3.18,3.2M168.64,124.31l-.55-.55.67-.66-.12,1.21M151.7,112.83l-.08-.08,16.23,16.38s0,.01,0,.02c-1.1,5.18-2.99,9.96-5.68,14.36l-7-7.13.04.04,10.06-9.88-2.8-2.83-10.03,9.89-23.38-23.81,9.87-9.86-3.24-3.26h0l-9.83,9.86.06.06-10.05-10.23h0s9.94-9.67,9.94-9.67l-2.69-2.73-9.88,9.72-22.76-23.18,9.75-9.66-2.63-2.65-9.73,9.66-9.99-10.17,9.81-9.49-.08-.08,22.34,22.56-9.83,9.66,2.57,2.62,9.85-9.66,36.52,36.88-9.92,9.89,2.64,2.7,9.91-9.92M139.44,125.1l-.05-.05,21.02,21.13s.06-.08.09-.12c-.03.05-.06.09-.09.13-1.53,2.15-3.22,4.16-5.07,6.04-1.47,1.49-3.01,2.88-4.64,4.17-.86.68-1.73,1.32-2.61,1.93-4.36,2.99-9.14,5.15-14.34,6.51-1.05.27-2.14.51-3.26.73-1.9.36-3.82.62-5.75.77-1.84.15-3.72.21-5.65.18-2.02-.02-4.08-.15-6.18-.37-1.33-.13-2.66-.3-3.99-.5-1.83-.29-3.65-.64-5.45-1.07-.91-.21-1.81-.44-2.7-.69-1.44-.39-2.87-.84-4.3-1.33-4.76-1.64-9.36-3.79-13.81-6.45-1.28-.77-2.56-1.58-3.83-2.44-4.1-2.77-8.07-6-11.9-9.69-.33-.32-.62-.59-.85-.82-.54-.52-1.05-1.03-1.53-1.53-3.69-3.79-6.93-7.72-9.71-11.78-.69-1.01-1.35-2.03-1.98-3.04-2.54-4.09-4.64-8.32-6.32-12.7-.49-1.28-.94-2.56-1.34-3.83-.58-1.81-1.08-3.63-1.51-5.47-.42-1.8-.77-3.62-1.05-5.45-.13-.87-.25-1.75-.35-2.63-.17-1.44-.3-2.86-.38-4.27-.09-1.54-.13-3.04-.12-4.5.04-3.44.36-6.72.97-9.85.31-1.58.69-3.13,1.14-4.64.72-2.43,1.64-4.79,2.76-7.07,1.12-2.28,2.42-4.45,3.9-6.51.58-.82,1.2-1.62,1.84-2.4.96-1.17,1.99-2.31,3.08-3.43h0c2.28-2.32,4.71-4.37,7.29-6.13,1.14-.78,2.3-1.49,3.47-2.14,4.33-2.42,9.03-4.12,14.1-5.08,0,0,0,0,0,0l4.57,4.61-9.7,9.59-8.96-9.13c-1.17.65-2.33,1.36-3.47,2.14l9.67,9.73-10.02,9.91.04.04-10.07-10.12c-.65.79-1.26,1.58-1.84,2.4l9.72,9.81-10.19,10.06-6.18-6.28c-.45,1.5-.83,3.05-1.14,4.63l4.52,4.5-.04-.04-5.45,5.39c-.01,1.46.03,2.96.12,4.5l7.74-7.48h0s0,0,0,0l10.48,10.45-10.74,10.67,2.6,2.6,10.76-10.66,9.77,9.74-.15-.14-10.83,10.62-18.91-18.91c.28,1.82.63,3.64,1.06,5.45l3.49,3.49.12.13-.12-.12h0s-1.99,1.97-1.99,1.97c.41,1.27.85,2.55,1.34,3.83l3.25-3.21,22.81,22.81-8.04,7.93c.48.5.99,1.01,1.53,1.53.34.33.62.61.85.83l8.09-7.85-.05-.05,10.83,10.83-.11-.1-6.86,6.86c1.26.85,2.54,1.66,3.84,2.44l6.18-6.15,10.12,10.12-2.49,2.48c1.41.49,2.84.94,4.3,1.33l1-1,1.69,1.69c1.8.43,3.61.78,5.45,1.07l-4.95-4.95,10.79-10.82-2.77-2.76-10.82,10.77.05.05-37.14-37.14,10.85-10.63,55.58,55.4c1.1-.21,2.19-.45,3.26-.72l-3.68-3.74,10.52-10.33-2.75-2.77-10.47,10.34-10.55-10.73.09.08,10.36-10.38-2.71-2.73-10.39,10.34-10.06-10.23,10.34-10.31-3.19-3.22-10.3,10.33-10.36-10.53,10.41-10.13-2.56-2.59-10.35,10.19-10.61-10.78,10.33-10.12-2.56-2.58-10.3,10.12.15.16-9.69-9.84,10.22-10.13-2.61-2.64-10.21,10.13-10.34-10.51,10.31-9.96,85.29,86.07c.89-.61,1.76-1.25,2.61-1.93l-7.83-7.88,10.05-9.85-2.77-2.79-10.04,9.88-10.61-10.67,9.94-9.97M169.11,148.06c.21-.42.48-.61.81-.59.39,0,.66.26.8.76,2.25,9.72,6.02,19.53,11.31,29.44.68,1.31.83,2.12.43,2.43-.51.4-1.58.16-3.23-.73-8.1-4.31-16.68-7.64-25.76-9.99-.59-.15-1.17-.3-1.73-.43-1.14-.3-1.77-.69-1.89-1.16-.18-.62.18-1.15,1.08-1.58.87-.47,1.72-.95,2.54-1.45,6.97-4.26,12.18-9.83,15.64-16.71M75.2,80.45l-10.23-10.29,10.14-9.79,10.08,10.14-9.99,9.94M112.69,43.19l-.08.08-.16-.16.23.08M115.26,45.93l1.37-1.36c4.53,1.73,8.91,3.94,13.14,6.61h0l-4.71,4.63-9.8-9.89M90.5,39.75s0,0,0,0l-3.31,3.26,2.88,2.87,6.12-5.91c.56.04,1.11.09,1.67.15,2.77.28,5.51.71,8.21,1.3,0,0,.01,0,.02,0l4.15,4.18-10.25,10.19.06.06-15.78-15.74c2.07-.23,4.14-.35,6.2-.36M97.66,83.05l-.15-.15-10.05,9.86,2.58,2.6,10.06-9.87,10.62,10.68-10.04,9.88-22.85-22.99,10.01-9.92,9.84,9.91M122.69,58.15l-10.24,10.07-9.8-9.78,10.25-10.16,9.79,9.87M113.47,118.93l3.2,3.22,9.96-9.95,10.14,10.21-9.98,9.94-23.63-23.77.08.07,10.1-9.82,10.08,10.14-9.94,9.97M128.01,163.1l-2.73-2.72-6.21,6.12c1.93.02,3.81-.04,5.65-.18l3.29-3.22M61.84,122.96l-2.53-2.53-6.47,6.37c.63,1.01,1.29,2.02,1.98,3.04l7.02-6.87M101.8,136.98l-3.18-3.18-10.75,10.78,3.15,3.16,10.78-10.76M88.14,123.35l-2.51-2.51-10.82,10.66,2.43,2.44,10.91-10.6Z"/>
    </g>
  </g>
  <g id="Pickle" class="st4">
    <g>
      <path class="st1" d="M203.22,171.46c-.41-5.21,3.23-19.45,6.81-33.77l.1-.4c3.58-14.32,4.06-29.51-4.22-41.72l-39.65-58.5c-8.28-12.22-24.89-15.41-37.11-7.13l-56.88,38.55c-12.22,8.28-15.41,24.89-7.13,37.11l39.65,58.5c8.28,12.22,22.56,17.4,37.19,19.38l.41.05c14.62,1.98,29.26,3.84,34.02,6.1,4.75,2.26,8.61,4.1,8.61,4.1l18.96-12.85-.75-9.43Z"/>
      <path class="st1" d="M247.89,242.29l-5.35-7.9c-.59-.87-1.75-2.1-2.59-2.74l-1.76-1.35c-.84-.64-1.99-1.87-2.59-2.74l-29.49-43.51-18.96,12.85,29.49,43.51c.59.87,1.3,2.4,1.59,3.42l.6,2.14c.29,1.01,1,2.54,1.59,3.42l5.35,7.9c.59.87,1.78,1.1,2.65.51l18.96-12.85c.87-.59,1.1-1.78.51-2.65Z"/>
    </g>
  </g>
  <g id="Padel" class="st4">
    <g>
      <path class="st1" d="M175.59,45.55c13.17,16.26,22.49,35.9,25.36,56.71,1.99,16.08.05,32.31,1.16,48.45.78,12.02,2.43,24.06,5.89,35.62,1.95.82,3.2,2.61,4.04,4.48.44.96.06,2.19.75,3.04,9.81,11.88,19.39,23.95,29.01,35.96,4.36,1.52,8.26,4.72,9.93,9.11.61,1.87-.69,3.66-2.09,4.75-5.31,4.31-10.57,8.69-16.03,12.82-1.62,1.4-4.04,1.23-5.68-.06-3.02-2.38-4.81-5.98-5.51-9.71-5.05-7.11-10.87-13.67-16.09-20.66-4.28-5.32-8.61-10.6-12.73-16.05-.7-1.11-2.15-.96-3.2-1.51-1.67-1.08-3.05-2.7-3.52-4.67-4.92-3.2-10.32-5.57-15.62-8.07-10.8-4.69-21.99-8.5-33.45-11.2-13.92-3.28-27.98-6.65-40.79-13.21-14.16-7.34-26.98-17.38-37.16-29.68-7.63-9.09-14.14-19.59-16.39-31.39-2.82-14.69,2.17-29.93,10.74-41.86,6.06-8.55,13.49-16.08,21.74-22.51,11.34-8.83,24.15-15.91,37.91-20.13,11.52-3.44,24.22-4.22,35.63.07,10.53,3.62,19.13,11.23,26.1,19.71ZM139,27.08c-9.82-1.46-19.75.7-29.02,3.91-15.24,5.67-29.17,14.71-40.88,25.96-6.63,6.37-12.37,13.72-16.71,21.84-4.37,8.49-6.91,18.21-5.68,27.8,1.26,10.89,6.79,20.76,13.44,29.27,13.53,17.55,32.24,31.06,53.2,38.25,8.99,3.11,18.36,4.89,27.55,7.29,16.81,4.31,33.32,10.32,48.25,19.27,5.19-4.17,10.34-8.39,15.52-12.57-3.64-12.08-5.35-24.66-6.23-37.23-1-15.53.82-31.15-1-46.63-1.53-13.01-5.92-25.57-12.03-37.11-5.26-9.68-11.66-18.82-19.57-26.52-7.32-7.06-16.71-12.13-26.84-13.53ZM207.55,190.51c-5.51,4.51-11.11,8.92-16.6,13.46.43.39.86.78,1.29,1.17,5.38-4.4,10.85-8.7,16.22-13.11-.29-.51-.59-1.02-.91-1.53ZM210.03,195.86c-4.94,3.41-9.33,7.53-14.22,11.02,1.96,2.49,3.92,4.98,5.78,7.54,3.14-5.11,5.56-10.62,8.53-15.83.67-.85.32-1.86-.09-2.73ZM213.39,200.79c-3.19,5.57-5.91,11.4-8.97,17.04,3.15,3.9,6.43,7.69,9.41,11.72,2.98-4.99,5.63-10.19,8.35-15.32.3-.76,1.15-1.75.35-2.48-3.14-3.58-5.96-7.42-9.15-10.96ZM225.89,216.02c-.64.84-1.2,1.75-1.67,2.71-2.42,4.88-5.08,9.62-7.57,14.45,2.88,3.48,5.63,7.08,8.45,10.62,3.39-5.43,6.28-11.17,9.68-16.58-3.09-3.63-5.86-7.52-8.89-11.2ZM237.44,230.47c-3.74,5.98-6.92,12.29-10.74,18.23,1.03,1.94,2.28,3.78,3.95,5.23,3.62-2.69,7.09-5.58,10.66-8.35,2.25-1.97,4.88-3.58,6.68-6.01-.99-1.41-1.97-2.87-3.31-3.99-1.31-1.14-3.15-1.22-4.61-2.1-1.04-.85-1.8-1.97-2.63-3Z"/>
      <path class="st1" d="M142.26,57.16c-4.01,2.33-9.54-1.15-9.22-5.72.1-4.21,4.9-7.48,8.81-5.71,4.83,1.73,4.98,9.3.4,11.43ZM136.75,51.99c.12,2.03,3.07,2.98,4.43,1.56,1.26-1.14,1.08-3.56-.55-4.28-1.79-1.26-4.18.76-3.88,2.73Z"/>
      <path class="st1" d="M128.76,67.39c-3.88,2.36-9.43-.96-9.22-5.49-.23-4.64,5.37-8.13,9.42-5.73,4.32,2.16,4.29,9.28-.2,11.22ZM123.3,62.46c.42,1.95,3.28,2.55,4.51,1.06,1.13-1.15.91-3.3-.55-4.08-1.94-1.22-4.72.8-3.96,3.02Z"/>
      <path class="st1" d="M156.14,63.09c.99,3.76-2.14,7.96-6.06,7.96-3.85.43-7.33-3.5-6.49-7.26.56-3.82,4.9-6.49,8.55-5.11,2,.64,3.63,2.34,4.01,4.42ZM147.34,65.58c.54,1.98,3.53,2.41,4.64.68,1.2-1.25.5-3.33-.95-4.03-2.01-.98-4.43,1.28-3.69,3.35Z"/>
      <path class="st1" d="M115.61,77.62c-3.66,2.44-9.31-.1-9.57-4.59-.82-4.91,5.12-8.91,9.41-6.39,4.28,1.96,4.28,8.85.16,10.98ZM109.77,71.7c-.46,2.05,2.13,3.81,3.91,2.77,1.78-.84,1.81-3.63.13-4.59-1.55-1-3.83-.04-4.04,1.83Z"/>
      <path class="st1" d="M141.38,79c-2.63,3.71-9.3,3.24-10.94-1.17-2.1-4.62,2.77-10.41,7.69-8.78,4.23.95,5.97,6.66,3.25,9.95ZM133.76,75.92c.46,1.93,3.15,2.58,4.46,1.13,1.37-1.16.85-3.61-.73-4.34-1.92-.99-4.46,1.15-3.73,3.21Z"/>
      <path class="st1" d="M164.2,82.83c-3.41,3.12-9.73.94-10.3-3.69-.99-4.73,4.35-9.08,8.78-7.07,4.34,1.53,5.11,8.04,1.52,10.76ZM157.84,79.29c.96,1.72,3.63,1.64,4.64.05.64-1.24.4-3.06-.97-3.71-2.1-1.56-5.1,1.56-3.67,3.66Z"/>
      <path class="st1" d="M102.16,88.05c-3.64,2.43-9.28-.2-9.57-4.61-.81-4.7,4.69-8.71,8.95-6.7,4.67,1.71,5.03,9.09.62,11.31ZM96.52,83.67c.78,1.87,3.58,1.97,4.72.42.73-1.35.4-3.35-1.11-4-2.09-1.02-4.65,1.47-3.61,3.58Z"/>
      <path class="st1" d="M126.41,90.98c-3.85,2.88-10.01-.37-9.83-5.16-.33-4.47,4.79-7.9,8.83-6.01,4.6,1.67,5.11,8.67,1,11.18ZM120.34,85.2c-.53,2.09,1.97,4.05,3.84,2.9,1.75-.73,2.03-3.34.49-4.44-1.43-1.39-4.08-.42-4.33,1.54Z"/>
      <path class="st1" d="M150.46,93.56c-3.68,2.91-10.21.22-10.07-4.68-.32-4.46,4.6-8.09,8.75-6.35,4.45,1.55,5.37,8.5,1.32,11.02ZM147.02,85.5c-2.04.25-4.03,2.61-2.51,4.52,1.35,2.3,5.33.85,4.85-1.78.08-1.43-1.29-2.13-2.34-2.74Z"/>
      <path class="st1" d="M176.55,93.48c-1.19,3.27-5.3,5.02-8.49,3.6-3.31-1.21-4.86-5.53-3.14-8.59,1.53-3.1,5.67-4.47,8.75-2.89,2.82,1.32,4.12,5.05,2.88,7.88ZM167.94,91.3c-.06,2.26,3.19,3.44,4.59,1.65,1.18-1.16.88-3.26-.54-4.09-1.74-1.04-4.13.43-4.05,2.43Z"/>
      <path class="st1" d="M88.4,98.37c-4.26,2.65-10.16-1.7-9.19-6.52.42-3.97,5-6.51,8.64-4.98,4.86,1.63,5.35,9.47.55,11.5ZM82.96,93.52c.43,1.83,3.04,2.62,4.3,1.16,1.46-1.31.72-3.85-1.04-4.51-1.92-.57-3.88,1.44-3.26,3.34Z"/>
      <path class="st1" d="M112.71,101.37c-3.39,2.25-8.51.39-9.47-3.62-1.49-4.59,3.33-9.47,7.94-7.91,5.11,1.16,6.03,9.04,1.53,11.53ZM106.68,96.23c-.01,1.89,2.38,3.16,3.95,2.17,1.92-.88,1.89-4.07-.09-4.85-1.79-.96-4.1.69-3.86,2.68Z"/>
      <path class="st1" d="M136.23,104.39c-3.96,2.58-9.93-1.06-9.33-5.78.12-4.21,4.89-7.23,8.76-5.62,4.69,1.71,5.19,9.27.56,11.39ZM130.68,98.68c-.36,1.87,1.71,3.39,3.42,2.71,2.19-.52,2.38-3.92.42-4.85-1.6-.94-3.72.32-3.84,2.14Z"/>
      <path class="st1" d="M160.42,107.21c-3.73,2.47-9.43-.32-9.59-4.83-.62-4.38,4.14-8.15,8.27-6.7,5.06,1.26,5.88,9.13,1.32,11.53ZM154.63,101.13c-.66,2.12,2.19,4.09,3.96,2.79,1.76-.83,1.55-3.69-.08-4.56-1.47-.92-3.6.1-3.88,1.78Z"/>
      <path class="st1" d="M77.23,106.65c-1.72,2.47-5.22,3.42-7.97,2.18-3.03-1.35-4.56-5.29-3.08-8.29,1.27-3.1,5.24-4.69,8.31-3.34,3.62,1.34,4.95,6.38,2.74,9.45ZM69.27,102.97c-.21,2.06,2.44,3.52,4.11,2.33,1.81-.84,1.53-3.72-.15-4.56-1.57-1.18-4,.36-3.96,2.23Z"/>
      <path class="st1" d="M187.63,105.39c-.35,3.6-4.18,6.08-7.64,5.32-3.75-.47-6.25-4.81-4.72-8.3,1.18-3.79,6.07-5.28,9.38-3.34,2.19,1.21,3.26,3.89,2.98,6.31ZM178.89,105.91c.99,2.02,4.39,1.57,5.1-.46.39-1.36-.34-3.01-1.71-3.48-2.26-.93-4.6,1.87-3.39,3.94Z"/>
      <path class="st1" d="M98.91,111.83c-3.63,2.19-8.95-.24-9.37-4.53-.8-4.64,4.45-8.89,8.8-6.95,4.79,1.69,5.25,9.38.57,11.48ZM93.28,106.65c.1,2.12,3.06,3.04,4.46,1.58,1.34-1.14.92-3.58-.62-4.35-1.82-1-4.25.71-3.83,2.77Z"/>
      <path class="st1" d="M123.8,114.1c-3.41,3.3-9.77.9-10.35-3.74-.79-4.43,3.88-8.62,8.19-7.12,4.65,1.18,5.81,7.93,2.16,10.86ZM117.12,109.7c.14,2.18,3.58,3.04,4.75,1.2.88-1.23.45-3.12-.85-3.89-1.84-1.22-4.22.63-3.9,2.69Z"/>
      <path class="st1" d="M146.57,117.81c-3.97,2.42-9.57-1.05-9.21-5.67-.2-4.36,4.89-7.56,8.79-5.78,4.76,1.81,5.03,9.3.42,11.45ZM141.09,112.63c.24,1.71,2.41,2.87,3.88,1.82,1.79-.86,1.61-3.71-.04-4.62-1.76-1.18-4.32.8-3.83,2.8Z"/>
      <path class="st1" d="M170.74,120.6c-3.9,2.42-9.49-.86-9.34-5.42-.21-4.39,4.71-7.76,8.73-5.98,4.83,1.65,5.05,9.14.61,11.4ZM165.02,115.17c-.16,2.43,3.47,3.54,4.83,1.61.91-1.15.68-2.84-.46-3.74-1.57-1.59-4.45.06-4.37,2.13Z"/>
      <path class="st1" d="M86.14,121.77c-3.35,2.61-9.11.86-10.01-3.43-1.62-4.86,4.04-9.73,8.65-7.63,4.53,1.49,5.25,8.48,1.36,11.06ZM82.62,114.02c-1.86-.41-2.91,1.43-3.26,2.96.73,1.44,2.19,2.82,3.93,2.14,2.61-.69,2.06-5.11-.67-5.11Z"/>
      <path class="st1" d="M112.62,118.79c.58,3.61-2.49,7.16-6.12,7.2-3.93.36-7.45-3.82-6.33-7.63.82-3.64,5-6.02,8.53-4.59,2.09.77,3.71,2.79,3.93,5.02ZM103.79,120.42c.43,1.81,2.99,2.62,4.31,1.29,1.4-1.13,1.11-3.68-.55-4.42-1.9-.98-4.51,1.02-3.76,3.13Z"/>
      <path class="st1" d="M136.4,123.24c-.14,3.5-3.84,6.13-7.21,5.6-3.47-.36-6.1-4.07-5.29-7.48.68-3.82,5.25-6.2,8.77-4.59,2.55.98,4.03,3.8,3.72,6.47ZM127.48,122.53c-.17,2,2.37,3.47,4.01,2.28,1.73-.88,1.63-3.63-.05-4.5-1.58-1.19-3.98.34-3.96,2.21Z"/>
      <path class="st1" d="M157.44,130.77c-3.49,2.32-8.83.13-9.53-4.05-1.16-4.73,4.26-9.21,8.7-7.18,4.64,1.67,5.08,8.86.83,11.23ZM154.89,122.8c-1.97-.69-3.82,1.58-3.25,3.42.34,1.36,1.94,2.01,3.22,1.72,1.26-.1,1.67-1.48,2.19-2.4-.4-1.1-.85-2.46-2.15-2.74Z"/>
      <path class="st1" d="M98.59,127.53c1.48,3.38-.54,7.8-4.2,8.64-3.67,1.19-7.97-1.73-7.96-5.65-.42-4.26,4.28-7.79,8.28-6.42,1.71.52,3.15,1.79,3.88,3.44ZM90.1,129.86c-.39,2.14,2.49,3.75,4.18,2.46,1.62-.97,1.56-3.67-.2-4.46-1.59-.95-3.85.12-3.97,2.01Z"/>
      <path class="st1" d="M121.08,137.65c-3.2,3.23-9.54,1.67-10.49-2.9-1.45-4.82,3.92-9.87,8.6-7.66,4.15,1.56,5.33,7.69,1.89,10.56ZM114.19,133.9c.42,1.64,2.5,2.58,3.93,1.54,1.79-.99,1.65-3.88-.17-4.75-1.92-1.25-4.55,1.15-3.76,3.21Z"/>
      <path class="st1" d="M147.08,136.08c-.05,3.01-2.52,5.79-5.56,6.07-4.02.67-7.96-3.24-7.08-7.28.51-3.93,5.13-6.48,8.73-4.86,2.49.86,4.04,3.49,3.91,6.07ZM138,136.06c.11,2.02,2.66,2.98,4.26,1.97,1.6-1.08,1.28-3.89-.48-4.63-1.76-.88-3.97.72-3.78,2.66Z"/>
      <path class="st1" d="M106.4,148.82c-3.93,2.72-10.11-.61-9.61-5.47-.09-4.42,4.97-7.67,8.96-5.78,4.62,1.75,4.95,8.93.65,11.25ZM100.82,144.88c.91,1.82,3.72,1.69,4.73.05.58-1.29.31-3.1-1.01-3.83-2.21-1.6-5.09,1.6-3.72,3.78Z"/>
      <path class="st1" d="M130.15,151.82c-3.85,2.15-9.62-.69-9.27-5.38-.27-4.64,5.29-8.11,9.32-5.81,4.29,2.08,4.38,9.22-.05,11.2ZM124.94,147.6c.92,1.62,3.52,1.69,4.54.14,1-1.3.29-3.37-1.17-3.99-2.16-1.03-4.86,1.84-3.37,3.85Z"/>
      <path class="st1" d="M192.92,180.73c1.05,3.2-1.32,6.5-4.36,7.44-1.92.83-3.8-.43-5.5-1.21-9.03-4.73-18.69-8.16-28.53-10.77-.1-1.07-.56-2.76.89-3.05,12.26-4.71,22.78-13.27,31-23.39.75-1.12,2.74-.4,2.64.92.48,10.11,1.64,20.18,3.85,30.06ZM162.2,174.37c6.3,1.91,12.45,4.3,18.42,7.04,2.28,1.07,4.42,2.43,6.8,3.3.77-.56,1.49-1.19,2.02-1.98-1.76-8.62-3.16-17.34-3.74-26.13-6.71,7.25-14.62,13.41-23.5,17.79Z"/>
      <path class="st1" d="M119.19,159.69c-1.58,3.04-5.8,4.32-8.76,2.52-2.91-1.51-4.01-5.41-2.56-8.3,1.4-2.99,5.25-4.38,8.27-3.07,3.39,1.29,4.81,5.75,3.06,8.84ZM110.99,157.35c.42,2,3.26,2.57,4.56,1.12,1.13-1.13.88-3.28-.49-4.12-1.93-1.27-4.78.75-4.07,3Z"/>
    </g>
  </g>
  <g id="Badminton" class="st4">
    <g>
      <path class="st2" d="M105.74,69v38.96s-55.29,145.24-55.29,145.24l28.06-17.15,9.57-34.15.08-32.14,21.35-61.23h10.83s-12.57,62.54-12.57,62.54l-17.25,32.16-9.04,33.42,15.04,25.17,21.59-23.21,4.17-35.39-6.62-32.15,9.03-62.55h14.98s-1.9,61.9-1.9,61.9l-12.11,32.25-3.82,36.15,19.89,26.86,19.87-26.87-3.84-36.15-12.12-32.24-1.94-61.9h15.05s9.03,62.55,9.03,62.55l-6.62,32.15,4.17,35.39,21.59,23.21,15.04-25.17-9.04-33.42-17.25-32.16-12.57-62.56h10.82s21.36,61.25,21.36,61.25l.08,32.14,9.57,34.15,28.06,17.15-55.29-145.21v-39.01c-.02-47.61-71.99-47.59-71.98.02Z"/>
      <rect class="st3" x="105.75" y="86.98" width="71.97" height="3.33"/>
    </g>
  </g>
</svg>